<svg width="1365" height="674" viewBox="0 0 1365 674" fill="none" xmlns="http://www.w3.org/2000/svg">
<g filter="url(#filter0_f_21_327)">
<path fill-rule="evenodd" clip-rule="evenodd" d="M1193.04 55.7112C1151.77 79.9469 1153.01 159.925 1193.89 239.699C1163.74 254.41 1131.46 303.039 1110.91 367.028C1088.71 383.661 1075.39 403.851 1074.31 426.1C1073.5 442.665 1079.55 458.754 1091.14 473.619C1088.61 532.372 1102.63 576.567 1130.11 583.664C1151.61 589.219 1176.91 570.905 1199.46 537.457C1229.06 546.206 1262.42 551.926 1297.85 553.656C1424.45 559.839 1529.62 512.755 1532.76 448.49C1535.11 400.334 1479.5 356.196 1398.21 334.492C1413.53 294.214 1401.58 227.196 1363.87 162.981C1313.82 77.7314 1237.34 29.7049 1193.04 55.7112ZM88.9776 92.1188C62.2256 131.811 97.9087 203.398 169.239 257.68C148.411 283.972 140.313 341.774 149.425 408.363C136.591 432.956 133.306 456.918 141.939 477.452C148.367 492.74 160.775 504.636 177.653 513.032C200.762 567.109 232.5 600.908 260.348 595.435C282.141 591.153 297.037 563.708 302.928 523.796C333.4 518.898 365.952 509.643 398.654 495.893C515.496 446.767 589.998 358.86 565.06 299.548C546.373 255.103 477.151 239.327 394.46 254.881C390.877 211.935 351.138 156.662 289.388 115.043C207.411 59.7906 117.684 49.5272 88.9776 92.1188Z" fill="#D9D9D9" fill-opacity="0.55"/>
</g>
<defs>
<filter id="filter0_f_21_327" x="-19.9028" y="-51.3542" width="1652.73" height="747.368" filterUnits="userSpaceOnUse" color-interpolation-filters="sRGB">
<feFlood flood-opacity="0" result="BackgroundImageFix"/>
<feBlend mode="normal" in="SourceGraphic" in2="BackgroundImageFix" result="shape"/>
<feGaussianBlur stdDeviation="50" result="effect1_foregroundBlur_21_327"/>
</filter>
</defs>
</svg>
